<?xml version="1.0" encoding="utf-8"?>
<!-- Generator: Adobe Illustrator 27.5.0, SVG Export Plug-In . SVG Version: 6.00 Build 0)  -->
<svg version="1.1" id="Layer_1" xmlns="http://www.w3.org/2000/svg" xmlns:xlink="http://www.w3.org/1999/xlink" x="0px" y="0px"
	 viewBox="0 0 270.48 397.39" style="enable-background:new 0 0 270.48 397.39;" xml:space="preserve">
<style>
    /* ADDED ANIMATION STYLE */
    @keyframes blink {
        0%, 96%, 100% { transform: scaleY(1); }
        98% { transform: scaleY(0.1); }
    }
    .eye-blink {
        animation: blink 4s infinite;
        transform-box: fill-box;
        transform-origin: center;
    }
</style>
<g>
	<g>
		<path style="fill:#4D2B27;" d="M230.225,123.769c-1.835-10.198-6.054-20.092-11.219-29.037
			c-4.619-8.001-10.26-15.412-16.702-22.033c-6.464-6.644-13.728-12.521-21.662-17.323c-7.806-4.726-16.27-8.427-25.117-10.694
			c-8.821-2.261-18.015-3.083-27.087-2.203c-9.647,0.935-19.376,3.625-27.805,8.478c-4.511,2.597-8.319,5.908-11.909,9.647
			c-0.174,0.182-0.353,0.359-0.528,0.54c0.177-0.288,0.348-0.579,0.508-0.877c0.453-0.842,0.824-1.723,1.06-2.651
			c0.089-0.35-0.425-0.266-0.505-0.009c-0.668,2.149-2.053,3.998-3.523,5.669c-1.603,1.823-3.404,3.463-5.214,5.077
			c-3.984,3.553-7.779,7.275-11.549,11.056c-4.312,4.325-8.579,8.701-12.757,13.156c-3.512,3.744-6.875,7.632-9.957,11.739
			c-6.091,8.115-11.075,17.264-13.138,27.273c-1.056,5.122-1.302,10.339-0.625,15.528c0.693,5.309,2.244,10.506,4.53,15.346
			c1.963,4.156,4.544,8.042,7.606,11.471c2.936,3.288,6.531,6.5,10.849,7.762c0.988,0.289,2.002,0.455,3.032,0.486
			c0.303,0.009,1.02-0.505,0.669-0.85c-2.078-2.046-3.846-4.453-5.327-6.96c-0.198-0.335-0.388-0.672-0.573-1.012
			c2.538,2.37,5.489,4.11,8.598,5.617c3.225,1.563,6.57,2.933,10.032,3.875c3.424,0.932,7.355,1.646,10.79,0.394
			c0.371-0.135,0.691-0.605,0.478-0.982c-1.871-3.331-4.883-5.809-6.953-9c-0.892-1.375-1.48-2.877-2.005-4.405
			c0.837,1.189,1.756,2.322,2.775,3.384c2.486,2.592,5.376,4.758,8.509,6.508c6.406,3.578,13.667,5.429,20.845,6.695
			c4.218,0.743,8.472,1.355,12.75,1.596c5.079,0.286,10.173,0.107,15.232-0.415c5.048-0.52,10.056-1.397,14.998-2.546
			c4.82-1.121,9.664-2.248,14.399-3.693c2.052-0.626,4.103-1.321,6.102-2.134c-1.401,1.243-2.867,2.42-4.418,3.507
			c-2.04,1.43-4.184,2.681-6.411,3.796c-0.419,0.209-0.801,0.835-0.223,1.094c3.177,1.426,6.96,0.928,10.223,0.079
			c3.277-0.853,6.425-2.176,9.454-3.677c0.299-0.148,0.598-0.3,0.896-0.452c-0.188,0.238-0.371,0.483-0.538,0.742
			c-0.121,0.188-0.178,0.564,0.071,0.693c3.946,2.057,8.799,0.978,12.821-0.287c4.247-1.336,8.47-3.05,12.492-4.955
			c4.352-2.061,8.556-4.594,12.002-7.991c3.775-3.722,6.082-8.594,8.336-13.323c2.492-5.23,4.607-10.681,5.737-16.378
			C231.408,135.364,231.255,129.497,230.225,123.769z"/>
		<g>
			<g>
				<path style="fill:#EB936D;" d="M163.132,225.87c-7.398-7.398-7.398-51.785-7.398-51.785h-18.752h-5.018h-18.752
					c0,0,0,44.387-7.398,51.785c-7.398,7.398-31.834,11.318-31.834,11.318s4.364,55.273,28.182,62.546
					c9.401,2.871,21.323,3.474,32.312,3.154c10.989,0.32,22.91-0.284,32.312-3.154c23.818-7.273,28.182-62.546,28.182-62.546
					S170.53,233.268,163.132,225.87z"/>
				<path style="opacity:0.64;fill:#EB936D;" d="M119.643,191.72c4.417,2.445,9.142,4.309,13.989,5.707
					c5.011,1.445,10.163,2.398,15.352,2.907c2.65,0.26,5.312,0.404,7.976,0.433c-1.225-13.295-1.226-26.682-1.226-26.682h-42.523
					c0,0,0,5.617-0.333,13.185C115.01,188.928,117.28,190.412,119.643,191.72z"/>
				<path style="opacity:0.64;fill:#EB936D;" d="M173.215,252.203c-2.218,0.265-4.433,0.549-6.645,0.854
					c-1.614,0.223-3.23,0.429-4.83,0.743c-2.54,0.498-5.03,1.265-7.213,2.69c-2.183,1.424-3.944,3.387-5.489,5.473
					c0.277-0.111,0.552-0.226,0.83-0.333c4.66-1.808,9.478-3.183,14.362-4.236c4.79-1.033,9.641-1.76,14.504-2.345
					c4.617-0.555,9.248-0.981,13.877-1.423c0.217-1.133,0.416-2.232,0.598-3.289c-2.271,0.154-4.541,0.326-6.808,0.519
					C181.998,251.23,177.602,251.679,173.215,252.203z"/>
				<path style="opacity:0.64;fill:#EB936D;" d="M104.016,253.722c1.881,0.387,3.674,1.102,5.384,1.966
					c3.062,1.549,5.892,3.604,9.135,4.765c-0.749-1.258-1.496-2.518-2.307-3.736c-0.764-1.149-1.598-2.264-2.62-3.198
					c1.889-1.727-4.322-2.471-6.826-2.74c-4.388-0.472-8.785-0.92-13.187-1.239c-1.137-0.082-2.285-0.107-3.419-0.223
					c1.107-0.113-2.213-0.224-3.323-0.31c-2.241-0.173-4.486-0.299-6.723-0.53c-1.113-0.115-2.225-0.256-3.329-0.438
					c0.504-0.083-1.002-0.194-1.496-0.319c0.099,0.631,0.206,1.283,0.319,1.953c7.203,0.844,14.424,1.557,21.58,2.753
					C99.485,252.806,101.752,253.256,104.016,253.722z"/>
			</g>
			<path style="fill:#EB936D;" d="M45.876,245.792c0,0-15.545,1.636-19.636,23.318c-4.091,21.682-9.818,122.319-9.818,122.319H52.83
				l8.591-101.864L45.876,245.792z"/>
			<path style="opacity:0.64;fill:#EB936D;" d="M29.008,325.141c3.261,2.413,6.571,4.764,10.011,6.916
				c0.439,0.274,0.879,0.545,1.322,0.813c0.361,0.218,0.785,0.367,0.973,0.756c0.455,0.943,0.839,1.929,1.251,2.891
				c0.825,1.926,1.637,3.856,2.44,5.791c3.224,7.772,6.288,15.609,9.393,23.428c0.164,0.414,0.329,0.827,0.494,1.241l6.529-77.413
				l-15.546-43.773c0,0-15.546,1.636-19.636,23.318c-1.581,8.379-3.406,28.552-5.051,50.151
				C23.796,321.22,26.388,323.202,29.008,325.141z"/>
			<path style="fill:#EB936D;" d="M225.059,245.792c0,0,15.546,1.636,19.637,23.318c4.091,21.682,9.818,122.319,9.818,122.319
				h-36.409l-8.591-101.864L225.059,245.792z"/>
			<path style="opacity:0.64;fill:#EB936D;" d="M216.812,367.221c0.598-4.012,1.109-8.036,1.796-12.035
				c1.237-7.198,2.921-14.817,7.83-20.485c4.745-5.479,11.61-8.776,18.003-11.906c1.791-0.877,3.589-1.744,5.374-2.636
				c-1.663-21.936-3.517-42.554-5.12-51.05c-4.091-21.682-19.637-23.318-19.637-23.318l-15.546,43.773l6.805,80.69
				C216.495,369.246,216.661,368.235,216.812,367.221z"/>
			<g>
				<path style="fill:#FEEED7;" d="M231.513,248.26c-16.727-8.727-36.339-11.636-36.339-11.636s-4.834,36.727-14.389,50
					c-8.105,11.258-25.745,13.751-41.455,13.916v-0.097c-1.333,0.042-2.701,0.073-4.091,0.09c-1.39-0.018-2.758-0.048-4.091-0.09
					v0.097c-15.71-0.165-33.35-2.657-41.455-13.916c-9.555-13.273-14.388-50-14.388-50s-19.612,2.909-36.339,11.636
					c-16.727,8.727-34.909,55.273-34.909,55.273c7.273,4.727,47.637,20,47.637,20c1.091,15.636,12,67.896,12,67.896h67.455h8.182
					h67.455c0,0,10.909-52.259,12-67.896c0,0,40.364-15.273,47.637-20C266.423,303.533,248.241,256.988,231.513,248.26z"/>
				<path style="fill:#C5BAAB;" d="M51.845,324.049c-0.401-6.297-0.705-12.6-0.93-18.905c-0.197-5.552-0.329-11.105-0.414-16.66
					c-0.775,2.696-1.335,5.451-1.733,8.228c-0.921,6.435-1.021,12.965-0.931,19.454c0.027,1.982,0.077,3.964,0.131,5.945
					c2.324,0.892,3.725,1.422,3.725,1.422c0.078,1.124,0.209,2.442,0.381,3.911C51.996,326.313,51.917,325.181,51.845,324.049z"/>
				<path style="fill:#C5BAAB;" d="M220.799,317.056c-0.789-7.193-1.486-14.404-2.713-21.539
					c-1.051-6.113-2.503-12.186-4.724-17.982c0.684,3.824,1.31,7.658,1.873,11.501c1.266,8.649,2.229,17.343,2.877,26.061
					c0.237,3.184,0.431,6.372,0.583,9.561c0.035-0.391,0.066-0.77,0.091-1.124c0,0,0.974-0.368,2.644-1.008
					C221.208,320.704,220.999,318.88,220.799,317.056z"/>
			</g>
		</g>
		<g>
			<g>
				<g>
					<g>
						<g>
							<g>
								<path style="fill:#EB936D;" d="M207.839,120.378c-1.514-5.883-7.739-9.067-13.796-7.127
									c-3.465,1.11-6.089,4.158-7.624,7.201c-0.895,1.774-1.449,3.719-1.78,5.662c-1.393,3.448-2.142,7.264-2.063,10.928
									c0.056,2.595,0.204,7.349,2.937,8.871c2.665,1.484,7.067-0.579,9.429-1.825c2.999-1.582,5.513-3.874,7.586-6.453
									C206.429,132.781,209.44,126.597,207.839,120.378z"/>
								<path style="opacity:0.64;fill:#EB936D;" d="M188.372,146.4c0.432-1.288,0.847-2.581,1.24-3.881
									c1.567-5.185-2.831-10.487,3.49-15.868c0.53-4.328,0.683-8.751,0.105-13.083c-3.051,1.299-5.379,4.092-6.789,6.885
									c-0.895,1.774-1.449,3.719-1.78,5.662c-1.393,3.448-2.142,7.264-2.063,10.928c0.056,2.595,0.204,7.349,2.937,8.871
									C186.336,146.372,187.327,146.491,188.372,146.4z"/>
								<path style="fill:#EB936D;" d="M204.993,120.442c-0.609-1.127-1.778-1.826-3.014-2.038
									c-2.847-0.488-5.872,1.405-7.768,3.364c-4.219,4.362-5.242,10.889-5.714,16.686c-0.028,0.339,0.48,0.124,0.526-0.111
									c0.182-0.93,0.366-1.875,0.564-2.824c0.084,0.689,0.223,1.367,0.364,1.976c0.276,1.195,0.967,2.275,2.271,2.399
									c3.149,0.3,5.491-3.373,7.107-5.464c0.152-0.196-0.165-0.268-0.291-0.135c-1.492,1.578-3.054,3.663-5.208,4.358
									c-1.733,0.56-2.439-0.708-2.844-2.135c-0.334-1.176-0.884-2.545-0.573-3.768c0.043-0.169-0.02-0.261-0.121-0.296
									c0.722-2.807,1.689-5.551,3.236-7.954c1.343-2.087,3.327-3.958,5.781-4.622c1.672-0.452,3.459-0.101,4.413,1.455
									c0.891,1.453,0.52,3.305,0.682,4.931c0.019,0.193,0.335,0.021,0.348-0.113C204.931,124.256,205.99,122.287,204.993,120.442z
									"/>
							</g>
							<g>
								<path style="fill:#EB936D;" d="M70.046,137.636c2.073,2.578,4.587,4.871,7.586,6.453c2.362,1.246,6.765,3.309,9.429,1.825
									c2.733-1.521,2.881-6.276,2.937-8.871c0.079-3.664-0.67-7.48-2.063-10.928c-0.331-1.943-0.884-3.888-1.78-5.662
									c-1.536-3.044-4.16-6.092-7.624-7.201c-6.058-1.94-12.282,1.244-13.796,7.127C63.132,126.597,66.143,132.781,70.046,137.636
									z"/>
								<path style="opacity:0.64;fill:#EB936D;" d="M84.201,146.4c-0.432-1.288-0.847-2.581-1.24-3.881
									c-1.567-5.185-2.831-10.487-3.49-15.868c-0.53-4.328-0.683-8.751-0.105-13.083c3.051,1.299,5.379,4.092,6.789,6.885
									c0.895,1.774,1.448,3.719,1.78,5.662c1.393,3.448,2.142,7.264,2.063,10.928c-0.056,2.595-0.204,7.349-2.937,8.871
									C86.236,146.372,85.245,146.491,84.201,146.4z"/>
								<path style="fill:#EB936D;" d="M67.579,120.442c0.609-1.127,1.778-1.826,3.015-2.038c2.847-0.488,5.872,1.405,7.768,3.364
									c4.219,4.362,5.242,10.889,5.714,16.686c0.028,0.339-0.48,0.124-0.526-0.111c-0.182-0.93-0.366-1.875-0.564-2.824
									c-0.084,0.689-0.223,1.367-0.364,1.976c-0.276,1.195-0.967,2.275-2.271,2.399c-3.149,0.3-5.491-3.373-7.107-5.464
									c0.152-0.196,0.165-0.268,0.291-0.135c1.492,1.578,3.054,3.663,5.207,4.358c1.733,0.56,2.439-0.708,2.844-2.135
									c0.334-1.176,0.884-2.545,0.573-3.768c-0.043-0.169,0.02-0.261,0.121-0.296c-0.722-2.807-1.689-5.551-3.236-7.954
									c-1.343-2.087-3.327-3.958-5.781-4.622c-1.672-0.452-3.459-0.101-4.413,1.455c-0.891,1.453-0.52,3.305-0.682,4.931
									c-0.019,0.193-0.335,0.021-0.347-0.113C67.641,124.256,66.583,122.287,67.579,120.442z"/>
							</g>
							<path style="fill:#EB936D;" d="M191.225,66.859c-1.948-30.238-37.253-33.68-37.253-33.68
								c-5.156-1.195-12.068-0.306-17.821,0.927c-5.752-1.233-12.664-2.122-17.82-0.927c0,0-35.305,3.442-37.253,33.68
								c-1.948,30.238,2.678,76.948,6.331,88.257c3.515,10.883,19.435,32.01,42.331,35.337c2.409,0.649,4.653,0.789,6.412,0.74
								c1.759,0.049,4.004-0.091,6.412-0.74c22.896-3.327,38.816-24.453,42.331-35.337
								C188.547,143.807,193.173,97.098,191.225,66.859z"/>
							<path style="opacity:0.64;fill:#EB936D;" d="M97.683,99.298c10.373-1.948,20.373-5.607,30.189-9.408
								c4.125-1.598,8.198-3.425,11.936-5.809c3.553-2.266,6.908-5.118,8.887-8.904c0.117-0.224,0.418-0.183,0.544,0
								c3.026,4.404,6.352,8.6,9.946,12.554c6.69,7.36,14.329,13.983,22.937,19.009c2.75,1.606,5.613,3.038,8.561,4.25
								c0.999-15.001,1.382-31.096,0.542-44.131c-1.948-30.238-37.253-33.68-37.253-33.68c-5.156-1.195-12.068-0.306-17.821,0.927
								c-5.752-1.233-12.664-2.122-17.82-0.927c0,0-35.305,3.442-37.253,33.68c-0.651,10.1-0.567,22.037-0.032,33.879
								C86.624,100.835,92.196,100.328,97.683,99.298z"/>
							<path style="opacity:0.64;fill:#EB936D;" d="M134.128,144.241c-1.633-0.272-3.274-0.904-4.44-2.089
								c-0.021,0.111-0.037,0.222-0.041,0.337c-0.019,0.609,0.228,1.178,0.592,1.656c0.743,0.972,1.89,1.633,3.002,2.098
								c1.14,0.476,2.341,0.762,3.58,0.736c2.651-0.057,5.436-1.342,6.296-3.94c-0.769,0.379-1.588,0.662-2.416,0.873
								C138.573,144.454,136.299,144.602,134.128,144.241z"/>
							<path style="fill:#08161F;" d="M148.135,102.748c0.537-0.21,1.067-0.436,1.595-0.619c1.551-0.539,3.183-0.9,4.788-1.238
								c2.983-0.629,6.08-0.939,9.121-1.119c3.001-0.177,5.985-0.076,8.965,0.33c2.615,0.356,5.225,0.899,7.762,1.633
								c1.745,0.505,3.536,1.129,5.096,2.1c-0.496-1.63-1.042-3.204-1.818-4.608c-0.822-1.119-1.814-2.104-3.062-2.865
								c-2.662-1.624-5.822-2.311-8.894-2.606c-3.087-0.296-6.205-0.203-9.289,0.084c-3.36,0.313-7.036,0.264-9.943,2.24
								c-1.264,0.859-2.263,2.109-3.025,3.421c-0.244,0.421-0.468,0.861-0.665,1.313c0.001,0.041-0.001,0.081,0.001,0.122
								c-0.086,0.168-0.17,0.331-0.249,0.493C148.359,101.859,148.229,102.3,148.135,102.748z"/>
							<g class="eye-blink">
								<path style="fill:#FFFFFF;" d="M156.927,135.543c2.484,0.158,4.988-0.033,7.441-0.433c2.609-0.426,5.192-1.087,7.66-2.037
									c2.578-0.993,5.08-2.355,7.132-4.223c0.079-0.071,0.157-0.145,0.235-0.218c0.192-0.243,0.378-0.491,0.552-0.748
									c0.074-0.534,0.127-1.071,0.153-1.609c0.11-2.261-0.145-4.533-0.67-6.732c-0.515-2.156-1.296-4.238-2.732-5.961
									c0.405-0.486-0.85-0.911-1.323-1.293c-0.149-0.077-0.296-0.158-0.451-0.229c-5.477-2.513-12.368-1.194-17.227,2.116
									c-1.586,1.081-2.914,2.46-3.935,4.043c-1.376,2.421-2.171,5.123-2.476,7.899c-0.302,2.746-0.187,5.517,0.083,8.265
									C153.13,135.086,155.039,135.423,156.927,135.543z"/>
								<g>
									<g>
										
											<ellipse transform="matrix(0.2298 -0.9732 0.9732 0.2298 7.5459 255.0595)" style="fill:#92422B;" cx="164.914" cy="122.762" rx="10.341" ry="10.341"/>
										
											<ellipse transform="matrix(0.1602 -0.9871 0.9871 0.1602 17.3204 265.8824)" style="fill:#1A1716;" cx="164.914" cy="122.762" rx="7.7" ry="7.7"/>
										<path style="fill:#FFFFFF;" d="M163.922,118.511c0,1.684-1.365,3.049-3.049,3.049c-1.684,0-3.049-1.365-3.049-3.049
											c0-1.684,1.365-3.049,3.049-3.049C162.557,115.462,163.922,116.827,163.922,118.511z"/>
										<circle style="fill:#FFFFFF;" cx="157.565" cy="123.024" r="0.9"/>
									</g>
								</g>
								<path d="M155.368,119.004c0.899-1.208,1.905-2.333,3.058-3.299c2.342-1.961,5.122-2.967,8.126-3.387
									c1.669-0.233,3.398-0.267,5.06,0.038c0.732,0.134,1.453,0.326,2.167,0.542c2.069,0.438,4.149,0.961,6.272,0.982
									c1.003,0.01,2.063-0.093,2.965-0.565c0.561-0.293,0.995-0.715,1.314-1.223c-0.077-0.009-0.165,0.005-0.259,0.051
									c-3.453,1.703-7.097-0.182-10.408-1.314c-3.264-1.115-6.732-1.789-10.183-1.354c-3.321,0.418-6.554,1.92-8.795,4.437
									c-1.262,1.418-2.236,3.09-2.954,4.864c-0.368,1.605-0.583,3.251-0.722,4.874c-0.118,1.384-0.176,2.77-0.205,4.157
									c0.368-1.509,0.915-2.976,1.6-4.354C153.19,121.869,154.183,120.348,155.368,119.004z"/>
								<path style="fill:#6F2F1A;" d="M180.604,127.048c-0.116-0.041-0.262-0.025-0.389,0.083c-0.799,0.679-1.452,1.519-2.238,2.22
									c-0.755,0.674-1.581,1.26-2.436,1.798c-1.706,1.073-3.524,1.963-5.447,2.577c-1.999,0.637-4.051,0.93-6.131,1.145
									c-2.369,0.245-4.763,0.419-7.145,0.283c-1.091-0.062-2.192-0.188-3.243-0.5c-1.073-0.318-2.082-0.85-3.031-1.438
									c-0.137-0.085-0.4,0.101-0.299,0.257c1.101,1.708,3.159,2.343,5.082,2.585c0.762,0.171,1.533,0.301,2.308,0.39
									c2.284,0.264,4.578,0.209,6.861-0.042c4.112-0.452,8.252-1.534,11.649-3.988c1.797-1.298,3.615-2.946,4.681-4.916
									C180.997,127.187,180.83,127.047,180.604,127.048z"/>
							</g>
							<path style="fill:#08161F;" d="M126.951,102.748c-0.537-0.21-1.067-0.436-1.595-0.619c-1.551-0.539-3.183-0.9-4.788-1.238
								c-2.983-0.629-6.08-0.939-9.121-1.119c-3.001-0.177-5.985-0.076-8.965,0.33c-2.615,0.356-5.225,0.899-7.762,1.633
								c-1.745,0.505-3.536,1.129-5.096,2.1c0.496-1.63,1.042-3.204,1.818-4.608c0.822-1.119,1.814-2.104,3.062-2.865
								c2.662-1.624,5.822-2.311,8.894-2.606c3.087-0.296,6.205-0.203,9.289,0.084c3.36,0.313,7.036,0.264,9.943,2.24
								c1.264,0.859,2.263,2.109,3.025,3.421c0.244,0.421,0.468,0.861,0.665,1.313c-0.001,0.041,0.001,0.081-0.001,0.122
								c0.086,0.168,0.17,0.331,0.249,0.493C126.727,101.859,126.858,102.3,126.951,102.748z"/>
							<g class="eye-blink">
								<path style="fill:#FFFFFF;" d="M118.16,135.543c-2.484,0.158-4.988-0.033-7.441-0.433c-2.609-0.426-5.192-1.087-7.66-2.037
									c-2.578-0.993-5.08-2.355-7.132-4.223c-0.079-0.071-0.157-0.145-0.235-0.218c-0.192-0.243-0.378-0.491-0.552-0.748
									c-0.074-0.534-0.127-1.071-0.153-1.609c-0.11-2.261,0.145-4.533,0.67-6.732c0.515-2.156,1.296-4.238,2.732-5.961
									c0.405-0.486,0.85-0.911,1.323-1.293c0.149-0.077,0.296-0.158,0.451-0.229c5.477-2.513,12.368-1.194,17.227,2.116
									c1.586,1.081,2.914,2.46,3.935,4.043c1.376,2.421,2.172,5.123,2.476,7.899c0.302,2.746,0.187,5.517-0.083,8.265
									C121.956,135.086,120.048,135.423,118.16,135.543z"/>
								<g>
									<g>
										
											<ellipse transform="matrix(0.2298 -0.9732 0.9732 0.2298 -34.6183 201.7827)" style="fill:#92422B;" cx="110.173" cy="122.762" rx="10.341" ry="10.341"/>
										
											<ellipse transform="matrix(0.2298 -0.9732 0.9732 0.2298 -34.6183 201.7826)" style="fill:#1A1716;" cx="110.173" cy="122.762" rx="7.7" ry="7.7"/>
										<path style="fill:#FFFFFF;" d="M109.181,118.511c0,1.684-1.365,3.049-3.049,3.049c-1.684,0-3.049-1.365-3.049-3.049
											c0-1.684,1.365-3.049,3.049-3.049C107.816,115.462,109.181,116.827,109.181,118.511z"/>
										<circle style="fill:#FFFFFF;" cx="102.824" cy="123.024" r="0.9"/>
									</g>
								</g>
								<path d="M119.719,119.004c-0.899-1.208-1.905-2.333-3.058-3.299c-2.342-1.961-5.122-2.967-8.126-3.387
									c-1.669-0.233-3.398-0.267-5.06,0.038c-0.732,0.134-1.453,0.326-2.167,0.542c-2.069,0.438-4.149,0.961-6.272,0.982
									c-1.003,0.01-2.062-0.093-2.965-0.565c-0.561-0.293-0.995-0.715-1.313-1.223c0.077-0.009,0.165,0.005,0.259,0.051
									c3.453,1.703,7.097-0.182,10.409-1.314c3.264-1.115,6.732-1.789,10.183-1.354c3.32,0.418,6.553,1.92,8.795,4.437
									c1.262,1.418,2.236,3.09,2.954,4.864c0.368,1.605,0.583,3.251,0.722,4.874c0.118,1.384,0.176,2.77,0.205,4.157
									c-0.368-1.509-0.915-2.976-1.6-4.354C121.897,121.869,120.904,120.348,119.719,119.004z"/>
								<path style="fill:#6F2F1A;" d="M94.482,127.048c0.116-0.041,0.262-0.025,0.389,0.083c0.799,0.679,1.452,1.519,2.237,2.22
									c0.755,0.674,1.581,1.26,2.436,1.798c1.706,1.073,3.524,1.963,5.447,2.577c1.999,0.637,4.051,0.93,6.131,1.145
									c2.369,0.245,4.764,0.419,7.145,0.283c1.091-0.062,2.192-0.188,3.243-0.5c1.073-0.318,2.082-0.85,3.031-1.438
									c0.137-0.085,0.4,0.101,0.299,0.257c-1.101,1.708-3.159,2.343-5.082,2.585c-0.762,0.171-1.533,0.301-2.308,0.39
									c-2.284,0.264-4.578,0.209-6.86-0.042c-4.112-0.452-8.252-1.534-11.649-3.988c-1.797-1.298-3.615-2.946-4.681-4.916
									C94.089,127.187,94.256,127.047,94.482,127.048z"/>
							</g>
							<path style="opacity:0.65;fill:#92422B;" d="M129.946,144.616c0.548,0.539,1.175,0.987,1.852,1.352
								c0.853,0.46,1.763,0.794,2.7,1.027c0.214,0.025,0.429,0.044,0.645,0.052c0.876,0.031,1.773-0.04,2.645-0.13
								c0.939-0.097,1.967-0.254,2.891-0.611c-2.615,0.576-5.499,0.308-7.907-0.851c-0.647-0.311-1.262-0.697-1.809-1.163
								c-0.463-0.395-0.983-0.892-1.189-1.48c-0.351-1.002,0.588-1.795,1.242-2.405c0.834-0.777,1.91-1.689,1.972-2.913
								c0.01-0.194-0.261-0.079-0.304,0.03c-0.456,1.166-1.569,1.919-2.454,2.74c-0.749,0.695-1.585,1.608-1.352,2.717
								C129.014,143.631,129.486,144.164,129.946,144.616z"/>
						</g>
					</g>
				</g>
			</g>
			<g>
				<path style="fill:#CE5134;" d="M150.398,167.027c-0.644-0.807-1.51-1.551-2.277-2.297c-1.645-1.602-3.593-3.35-6.3-3.997
					c-1.199-0.287-2.478-0.268-3.695-0.049c-0.597,0.107-1.177,0.266-1.72,0.476c-0.094,0.036-0.173,0.076-0.255,0.115
					c-0.082-0.039-0.161-0.079-0.255-0.115c-0.543-0.21-1.124-0.369-1.72-0.476c-1.217-0.218-2.496-0.237-3.695,0.049
					c-2.707,0.647-4.655,2.394-6.3,3.997c-0.767,0.747-1.633,1.49-2.276,2.297c-0.247,0.309-0.568,0.724-0.435,1.096
					c0.134,0.375,0.724,0.553,1.109,0.771c1.329,0.751,2.494,1.644,3.835,2.387c1.177,0.652,2.453,1.15,3.88,1.442
					c1.98,0.405,4.052,0.426,6.093,0.403c1.909-0.021,3.768-0.024,5.622-0.403c1.427-0.292,2.704-0.79,3.88-1.442
					c1.34-0.742,2.505-1.635,3.835-2.387c0.385-0.218,0.975-0.396,1.109-0.771C150.967,167.751,150.645,167.336,150.398,167.027z"/>
				<path style="fill:#EB936D;" d="M149.914,167.458c-0.03-0.384-0.81-0.169-0.835,0.129c-0.002,0.024-0.005,0.048-0.007,0.072
					c-0.079,0.002-0.163,0.01-0.237,0.008c-0.288-0.008-0.559-0.058-0.833-0.121c-0.372-0.087-0.732-0.2-1.105-0.285
					c-1.887-0.432-3.912-0.678-5.876-0.827c-3.971-0.303-7.968-0.085-11.936,0.148c-1.092,0.064-2.138,0.146-3.188,0.388
					c-0.526,0.121-1.054,0.253-1.564,0.408c-0.214,0.065-0.42,0.141-0.628,0.216c-0.058,0.021-0.114,0.044-0.172,0.064
					c-0.043,0.016-0.088,0.03-0.133,0.043c-0.238-0.342-1.032-0.001-0.951,0.34c0.151,0.637,1.131,0.313,1.64,0.141
					c1.083-0.366,2.108-0.809,3.257-1.064c1.179-0.261,2.369-0.325,3.592-0.381c1.152-0.053,2.302-0.129,3.456-0.158
					c2.295-0.058,4.596,0.011,6.874,0.231c1.952,0.188,3.992,0.394,5.854,0.876c0.361,0.093,1.29,0.361,1.979,0.352
					c0.188,0.188,0.867,0.009,0.842-0.275C149.935,167.661,149.926,167.559,149.914,167.458z"/>
			</g>
		</g>
		<path style="fill:#70443F;" d="M257.178,175.343c-5.05-0.335-9.859-2.731-13-6.729c-4.08-5.192-4.775-12.547-3.331-18.822
			c0.701-3.047,1.799-5.989,2.813-8.945c0.595-4.35,1.261-8.682,0.864-13.099c-0.718-7.989-4.32-15.166-8.943-21.595
			c-4.288-5.963-9.322-11.397-13.039-17.761c-4.161-7.122-5.731-15.177-7.164-23.203c-1.451-8.121-2.809-16.438-6.574-23.872
			c-3.452-6.815-8.726-12.576-14.647-17.337c-6.118-4.92-13.017-9.199-20.6-11.397c-3.795-1.101-7.816-1.837-11.775-1.918
			c-3.086-0.063-6.343,0.274-9.218,1.453c-0.611,0.251-1.208,0.548-1.764,0.906c-2.673-1.79-5.587-3.355-8.566-4.512
			c-3.49-1.355-7.187-2.112-10.914-2.406c-7.571-0.598-15.237,0.703-22.456,2.946c-6.855,2.13-13.43,5.042-19.137,9.452
			c-1.591,1.229-3.114,2.562-4.552,3.982c-6.66,5.242-12.432,11.733-16.546,19.142c-4.749,8.552-7.266,18.125-10.553,27.279
			c-1.396,3.888-2.963,7.727-4.855,11.373c-0.157,0.354-0.318,0.705-0.484,1.053c-3.485,7.305-8.716,13.674-13.962,19.772
			c-2.769,3.219-5.871,6.269-9.245,8.85c-3.183,2.435-6.761,4.432-10.689,5.307c4.284,1.593,9.276,0.142,12.969-2.29
			c0.312-0.206,0.61,0.241,0.381,0.494c-0.611,0.674-1.209,1.36-1.791,2.06c-4.645,5.592-8.418,12.164-9.914,19.335
			c-1.517,7.275-0.253,14.73,3.744,21.015c3.983,6.263,9.336,11.732,12.196,18.669c1.867,4.529,2.059,9.687,1.25,14.485
			c-0.164,0.97-0.399,1.989-0.726,2.982c0.476-0.876,0.932-1.763,1.347-2.666c1.906-4.152,2.86-8.676,2.999-13.233
			c0.129-4.211-0.392-8.406-1.144-12.543c0.531,0.667,1.08,1.318,1.644,1.95c2.41,2.702,5.162,5.172,8.25,7.074
			c0.483,0.297,1.244-0.318,0.981-0.842c-1.873-3.734-4.014-7.33-5.889-11.061c1.604,2.878,3.682,5.474,6.267,7.647
			c1.139,0.958,2.356,1.822,3.631,2.591c1.23,0.743,2.526,1.337,3.801,1.993c2.489,1.281,4.972,2.902,7.739,3.511
			c0.583,0.128,1.184,0.208,1.782,0.171c0.461-0.028,1.285-0.592,0.893-1.135c-1.478-2.049-3.638-3.42-5.417-5.174
			c-1.822-1.796-3.236-3.999-4.407-6.261c-2.067-3.994-3.48-8.383-4.457-12.764c-1.842-8.26-1.912-17.018,0.444-25.184
			c2.374-8.229,7.223-15.526,14.016-20.764c8.748-6.745,18.353-12.33,28.213-17.274c0.28-0.14,0.564-0.278,0.846-0.417
			c0.481-0.219,0.962-0.439,1.443-0.658c4.445-2.029,8.943-4.08,13.226-6.474c1.669-0.894,3.305-1.838,4.894-2.853
			c-0.893,0.984-1.802,1.953-2.744,2.89c-2.906,2.887-6.138,5.342-9.671,7.413c-1.655,0.97-3.541,1.959-5.501,1.968
			c-0.164-0.005-0.327-0.005-0.491-0.016c-0.803-0.066-1.54,1.339-0.484,1.414c4.886,0.344,9.615-1.723,14.08-3.426
			c4.8-1.831,9.418-3.998,13.869-6.569c4.31-2.49,8.571-5.228,12.361-8.467c3.669-3.136,6.903-6.723,9.707-10.649
			c1.025-1.435,2.007-2.89,2.827-4.435c0.992,2.713,2.238,5.339,3.665,7.842c4.899,8.587,11.924,15.635,19.038,22.389
			c6.849,6.502,13.173,13.614,18.482,21.436c5.329,7.851,9.631,16.405,12.092,25.596c2.103,7.853,2.484,17.235-1.873,24.43
			c-0.542,0.894-1.155,1.738-1.84,2.527c-0.557,0.642,0.281,1.025,0.792,0.539c3.526-3.352,6.082-7.612,7.464-12.273
			c1.28-4.317,2.553-8.661,3.49-13.072c0.329,1.562,0.545,3.143,0.594,4.762c0.089,2.952-0.244,5.902-0.723,8.81
			c-0.552,3.345-1.299,6.656-1.843,9.997c0.035,0.529,0.077,1.058,0.131,1.584c0.521,5.047,1.925,10.3,4.972,14.437
			c1.416,1.923,3.242,3.55,5.415,4.564c0.034,0.016,0.069,0.027,0.103,0.043c-0.149-0.269-0.292-0.54-0.428-0.815
			c-0.558-1.126-0.889-2.332-1.195-3.547c-1.236-4.895-1.569-9.987-1.076-15.006c1.122,3.825,3.326,7.251,6.282,10.037
			c1.846,1.74,3.953,3.294,6.255,4.378c1.91,0.899,3.932,1.539,5.992,1.989c4.509,0.986,9.314,1.191,13.84,0.192
			c2.564-0.566,5.145-1.598,7.218-3.233C258.291,175.388,257.734,175.38,257.178,175.343z"/>
		<g>
			<path style="fill:#4D2B27;" d="M153.258,40.832c-1.331-1.722-3.135-2.975-5.316-3.309c-2.108-0.323-4.269,0.135-6.238,0.89
				c-4.406,1.689-7.941,4.875-11.098,8.284c-7.947,8.58-15.843,17.29-25.713,23.722C94.704,77.06,83.259,81.382,72.672,87.301
				c-8.004,4.475-15.748,9.847-21.886,16.72c-5.934,6.644-10.273,15.032-9.48,24.161c0.1,1.156,0.28,2.302,0.526,3.435
				c0.055,0.254,0.497,0.03,0.451-0.198c-0.903-4.461-0.635-9.04,0.784-13.366c1.384-4.22,3.736-8.074,6.546-11.492
				c5.7-6.935,13.126-12.35,20.848-16.827c10.033-5.817,20.902-10.023,30.916-15.877c5.032-2.942,9.729-6.353,14.093-10.217
				c4.224-3.741,8.122-7.827,11.953-11.964c3.325-3.591,6.443-7.504,10.544-10.252c3.413-2.287,7.963-4.203,12-2.37
				c1.089,0.495,2.057,1.205,2.891,2.06C153.019,41.277,153.407,41.025,153.258,40.832z"/>
			<path style="fill:#4D2B27;" d="M45.126,162.097c-0.876-1.269-1.793-2.51-2.57-3.845c-0.756-1.299-1.393-2.663-1.894-4.08
				c-0.974-2.755-1.452-5.665-1.44-8.586c0.007-1.701,0.127-3.414,0.457-5.084c0.017-0.085-0.134-0.049-0.15,0.015
				c-0.741,2.991-1.122,5.969-0.806,9.049c0.31,3.018,1.236,5.923,2.651,8.603c0.089,0.168,0.18,0.335,0.272,0.502
				c-2.407-2.208-4.529-4.711-6.126-7.569c-1.62-2.898-2.669-6.099-3.208-9.371c-0.542-3.288-0.563-6.669-0.095-9.967
				c0.486-3.427,1.664-6.594,3.528-9.509c0.966-1.512,2.043-2.952,3.091-4.407c1.119-1.553,2.132-3.17,3.067-4.841
				c0.1-0.178-0.156-0.199-0.239-0.069c-1.864,2.92-4.251,5.467-6.242,8.299c-2.031,2.89-3.48,6.019-4.145,9.501
				c-1.282,6.713-0.494,13.87,2.57,20.009c1.707,3.42,4.162,6.518,7.402,8.592c0.218,0.14,0.555-0.07,0.604-0.301
				c0.73,1.271,1.57,2.487,2.588,3.539C44.717,162.859,45.365,162.443,45.126,162.097z"/>
			<path style="fill:#4D2B27;" d="M201.237,98.938c-4.593-4.986-8.71-10.343-11.762-16.419c-3.146-6.263-5.122-13.068-6.211-19.98
				c-1.224-7.775-1.544-15.742-3.875-23.306c-1.75-5.676-4.785-11.412-10.317-14.165c-2.511-1.249-5.282-1.89-8.07-1.376
				c-2.523,0.465-5.107,1.765-6.397,4.076c-0.306,0.548-0.526,1.134-0.663,1.746c-0.065,0.29,0.35,0.219,0.416,0.007
				c0.79-2.571,3.121-4.203,5.652-4.819c2.727-0.663,5.46-0.188,7.966,1.022c5.409,2.612,8.447,8.13,10.186,13.642
				c2.308,7.318,2.693,15.049,3.977,22.572c1.147,6.723,3.132,13.325,6.061,19.492c2.776,5.844,6.504,11.399,11,16.064
				c0.562,0.583,1.134,1.157,1.712,1.724C201.038,99.345,201.367,99.079,201.237,98.938z"/>
			<path style="fill:#4D2B27;" d="M220.22,130.97c-1.228-3.106-2.989-6.023-4.835-8.798c-1.825-2.744-3.861-5.344-6.011-7.841
				c-4.382-5.089-9.288-9.664-14.089-14.348c-4.824-4.705-9.577-9.631-13.06-15.441c-3.393-5.66-5.767-11.98-7.43-18.351
				c-0.206-0.789-0.401-1.582-0.587-2.376c-0.04-0.17-0.331-0.019-0.301,0.132c1.287,6.415,3.156,12.729,6.118,18.582
				c3.048,6.022,7.345,11.198,12.066,15.979c4.723,4.784,9.708,9.298,14.224,14.285c4.413,4.873,8.44,10.157,11.542,15.968
				c1.611,3.017,2.706,6.267,3.361,9.62c0.644,3.296,0.817,6.63,0.892,9.98c0.019,0.854,0.026,1.708,0.025,2.562
				c0,0.245,0.377,0.108,0.389-0.083C222.937,144.162,222.708,137.267,220.22,130.97z"/>
			<path style="fill:#4D2B27;" d="M221.081,150.09c-0.173-1.935-0.604-3.831-1.119-5.701c-0.59-2.137-1.315-4.236-1.855-6.386
				c-0.04-0.159-0.302-0.016-0.278,0.122c0.65,3.728,1.927,7.337,2.348,11.104c0.411,3.685-0.099,7.509-1.124,11.056
				c-0.562,1.947-1.375,3.795-2.439,5.52c-0.208,0.337,0.278,0.466,0.475,0.22c2.307-2.869,3.322-6.595,3.795-10.187
				C221.134,153.933,221.253,152.008,221.081,150.09z"/>
			<path style="fill:#4D2B27;" d="M226.03,103.078c-2.686-3.748-5.577-7.352-8.155-11.176c-2.592-3.846-4.893-7.883-6.933-12.046
				c-4.157-8.482-7.094-17.436-9.953-26.417c-1.458-4.581-2.957-9.153-4.797-13.598c-1.554-3.755-3.261-7.613-5.714-10.879
				c-2.128-2.832-4.694-5.429-7.623-7.431c-2.633-1.8-5.843-3.272-9.108-2.838c-0.751,0.1-1.479,0.31-2.174,0.609
				c-0.179,0.077-0.147,0.337,0.064,0.252c3.207-1.291,6.64-0.15,9.433,1.594c3.013,1.881,5.588,4.475,7.743,7.282
				c2.357,3.07,4.081,6.559,5.603,10.104c1.871,4.358,3.377,8.864,4.817,13.379c1.421,4.454,2.771,8.931,4.319,13.344
				c1.513,4.313,3.218,8.56,5.147,12.704c1.937,4.163,4.117,8.214,6.58,12.09c2.452,3.86,5.253,7.467,8.005,11.114
				c5.275,6.991,10.263,14.269,13.077,22.638c0.355,1.056,0.7,2.114,1.007,3.185c0.077,0.267,0.526,0.028,0.474-0.208
				C235.904,118.019,231.197,110.289,226.03,103.078z"/>
			<path style="fill:#4D2B27;" d="M149.193,25.055c-0.645-2.456-2.854-3.759-5.161-4.406c-2.596-0.728-5.356-0.814-8.033-0.648
				c-7.018,0.435-13.759,2.966-19.704,6.648c-3.258,2.018-6.291,4.393-9.089,7.009c-2.936,2.744-5.564,5.791-8.142,8.866
				c-2.629,3.136-5.215,6.308-7.995,9.314c-2.623,2.837-5.465,5.374-8.512,7.744c-2.762,2.148-5.568,4.267-8.656,5.932
				c-3.005,1.62-6.389,2.975-9.862,2.835c-0.809-0.033-1.6-0.166-2.386-0.354c-0.253-0.061-0.627,0.359-0.296,0.475
				c1.527,0.535,3.023,1.169,4.598,1.559c1.376,0.341,2.787,0.561,4.205,0.595c3.144,0.076,6.222-0.79,9.065-2.081
				c0.417-0.19,0.347-0.811-0.152-0.598c-2.819,1.204-5.751,2.114-8.847,2.039c-2.025-0.049-4.11-0.453-6.09-1.076
				c2.257,0.058,4.555-0.527,6.624-1.325c3.292-1.269,6.339-3.172,9.221-5.186c2.864-2.001,5.67-4.136,8.242-6.502
				c2.973-2.735,5.645-5.765,8.244-8.852c2.633-3.128,5.208-6.309,7.98-9.316c2.599-2.819,5.424-5.424,8.502-7.714
				c6.009-4.472,13.018-7.801,20.487-8.816c2.461-0.334,4.985-0.41,7.458-0.166c2.438,0.24,5.201,0.873,6.921,2.756
				c0.393,0.431,0.705,0.926,0.926,1.466C148.841,25.497,149.252,25.281,149.193,25.055z"/>
		</g>
	</g>
	<path style="fill:#231F20;" d="M198.078,107.376c-2.95-0.369-6.268-0.369-11.431-2.581c-5.162-2.212-17.33-2.95-26.548-1.106
		c-9.218,1.844-12.754,7.22-13.827,8.296c-1.794,1.8-6.637,2.212-7.559,2.028c-0.922,0.184-5.765-0.228-7.559-2.028
		c-1.073-1.077-4.609-6.453-13.827-8.296c-9.218-1.844-21.386-1.106-26.548,1.106c-5.162,2.212-8.481,2.212-11.431,2.581
		c-2.95,0.369-2.95,2.581-2.95,2.581c0.369,5.531,2.315,5,3.319,7.006c0.369,0.738,0.737,4.794,1.106,9.956
		c0.369,5.162,4.794,13.643,11.799,16.593c7.006,2.95,20.649,4.425,29.129,0c8.481-4.425,10.324-14.749,11.799-19.911
		c1.475-5.162,5.162-4.056,5.162-4.056s3.687-1.106,5.162,4.056c1.475,5.162,3.318,15.487,11.799,19.911
		c8.481,4.425,22.124,2.95,29.129,0c7.006-2.95,11.431-11.431,11.799-16.593c0.369-5.162,0.737-9.218,1.106-9.956
		c1.003-2.006,2.95-1.475,3.318-7.006C201.028,109.957,201.028,107.745,198.078,107.376z M119.723,140.746
		c-8.481,4.425-22.124,3.687-29.129-1.844s-7.006-18.068-6.268-22.861c0,0,0-6.268,11.062-8.112
		c11.062-1.844,21.017-2.212,28.761,2.95c0,0,4.794,2.581,5.162,8.85C129.679,125.997,128.204,136.321,119.723,140.746z
		 M186.832,138.902c-7.006,5.531-20.649,6.268-29.129,1.844c-8.481-4.425-9.956-14.749-9.587-21.017
		c0.369-6.268,5.162-8.85,5.162-8.85c7.743-5.162,17.699-4.793,28.761-2.95c11.062,1.844,11.062,8.112,11.062,8.112
		C193.837,120.835,193.837,133.372,186.832,138.902z"/>
</g>
</svg>